<svg width="31" height="31" viewBox="0 0 31 31" fill="none" xmlns="http://www.w3.org/2000/svg">
<path d="M30.592 20.8738C30.592 20.1751 30.0809 19.6089 29.4493 19.6089C28.8171 19.6089 28.3061 20.1751 28.3061 20.8738V28.2062H2.87837V20.8738C2.87837 20.1751 2.36731 19.6089 1.73471 19.6089C1.10304 19.6089 0.59198 20.1751 0.59198 20.8738V28.9438C0.59198 29.0373 0.623423 29.1194 0.640317 29.2072C0.623892 29.295 0.59198 29.3776 0.59198 29.4706C0.59198 30.1693 1.10304 30.736 1.73471 30.736H29.4493C30.0809 30.736 30.592 30.1693 30.592 29.4706C30.592 29.3776 30.5619 29.295 30.5441 29.2072C30.5619 29.1194 30.592 29.0373 30.592 28.9443V20.8738Z" fill="white"/>
<path d="M15.6638 0.735992C15.0321 0.735992 14.5201 1.30274 14.5201 2.00143V20.4821L9.54327 14.9721C9.09697 14.4781 8.37379 14.4781 7.9275 14.9721C7.4812 15.4661 7.4812 16.2672 7.9275 16.7612L14.8561 24.4306C15.079 24.6779 15.3719 24.801 15.6643 24.801C15.9562 24.801 16.2485 24.6774 16.4724 24.4306L23.401 16.7612C23.8473 16.2672 23.8473 15.4661 23.401 14.9721C22.9542 14.4781 22.2311 14.4781 21.7852 14.9721L16.8065 20.4821V2.00143C16.8065 1.30274 16.2955 0.735992 15.6638 0.735992V0.735992Z" fill="white"/>
</svg>
