<svg width="25" height="25" viewBox="0 0 25 25" fill="none" xmlns="http://www.w3.org/2000/svg">
<path d="M6.57507 13.5351L11.5683 18.7122L22.0662 7.82335L17.0751 2.646L6.57507 13.5351ZM18.2591 6.59514C18.6058 6.9556 18.6058 7.53943 18.2591 7.89933L12.1797 14.2029C12.0065 14.3837 11.779 14.4731 11.5523 14.4731C11.3235 14.4731 11.0965 14.3837 10.9233 14.2029C10.576 13.8425 10.576 13.2589 10.9233 12.899L17.0019 6.59514C17.3486 6.23496 17.9118 6.23496 18.2591 6.59514Z" fill="#1BBC9B"/>
<path d="M4.28979 21.0081L9.83712 19.5271L5.77446 15.3135L4.28979 21.0081Z" fill="#65B794"/>
<path d="M24.0911 3.00038L21.7246 0.545092C21.0229 -0.182126 19.799 -0.181269 19.1001 0.545092L18.3312 1.34286L23.3239 6.51965L24.0911 5.7233C24.8135 4.97209 24.8135 3.75045 24.0911 3.00038Z" fill="#65B794"/>
<path d="M21.8781 25H0.913768C0.408965 25 0 24.5756 0 24.052V0.994966C0 0.471404 0.408689 0.0472412 0.913768 0.0472412H14.9901C15.4955 0.0472412 15.9036 0.471404 15.9036 0.994966C15.9036 1.51824 15.4955 1.94269 14.9901 1.94269H1.82754V23.104H21.8781C22.5919 23.104 23.1727 22.5019 23.1727 21.7612V9.87125C23.1727 9.34769 23.5814 8.92352 24.0862 8.92352C24.5908 8.92352 25 9.34769 25 9.87125V21.7612C25.0003 23.547 23.5996 25 21.8781 25Z" fill="#1BBC9B"/>
</svg>
