<svg width="30" height="31" viewBox="0 0 30 31" fill="none" xmlns="http://www.w3.org/2000/svg">
<path d="M30 29.0352V7.65562C29.9941 7.48575 29.9297 7.29831 29.7598 7.12845L23.8711 1.24175C23.8711 1.24175 23.5605 0.954737 23.1855 0.978167H1.93359C1.93359 0.978167 0 0.978167 0 2.91111V29.0352C0 29.0352 0 30.9681 1.93359 30.9681H28.0664C28.0664 30.9681 30 30.9681 30 29.0352ZM23.6133 10.5257C23.6133 11.8144 22.3242 11.8144 22.3242 11.8144H7.67578C6.38672 11.8144 6.38672 10.5257 6.38672 10.5257V4.37547C6.38672 3.08683 7.67578 3.08683 7.67578 3.08683H22.3242C23.6133 3.08683 23.6133 4.37547 23.6133 4.37547V10.5257ZM27.8906 27.5708C27.8906 28.8594 26.6016 28.8594 26.6016 28.8594H3.39844C2.10938 28.8594 2.10938 27.5708 2.10938 27.5708V15.856C2.10938 14.5674 3.39844 14.5674 3.39844 14.5674H26.6016C27.8906 14.5674 27.8906 15.856 27.8906 15.856V27.5708ZM22.5586 10.1157V4.78548C22.5586 4.78548 22.5586 3.90687 21.6797 3.90687H18.8086C18.8086 3.90687 17.9297 3.90687 17.9297 4.78548V10.1157C17.9297 10.1157 17.9297 10.9943 18.8086 10.9943H21.6797C21.6797 10.9943 22.5586 10.9943 22.5586 10.1157Z" fill="#6EC4A7"/>
<g clip-path="url(#clip0_39590_24)">
<path d="M22.5 30.9769C26.6421 30.9769 30 27.62 30 23.479C30 19.3381 26.6421 15.9812 22.5 15.9812C18.3579 15.9812 15 19.3381 15 23.479C15 27.62 18.3579 30.9769 22.5 30.9769Z" fill="#C93636"/>
<path d="M26.7539 26.5718L23.6602 23.479L26.7422 20.3861C26.7891 20.3393 26.7891 20.269 26.7422 20.2221L25.7461 19.2263C25.6992 19.1794 25.6289 19.1794 25.582 19.2263L22.5 22.3192L19.418 19.238C19.3711 19.1912 19.3008 19.1912 19.2539 19.238L18.2578 20.2338C18.2109 20.2807 18.2109 20.351 18.2578 20.3978L21.3281 23.479L18.2461 26.5601C18.1992 26.607 18.1992 26.6773 18.2461 26.7241L19.2422 27.7199C19.2891 27.7668 19.3711 27.7668 19.4062 27.7199L22.5 24.6388L25.582 27.7199C25.6289 27.7668 25.7109 27.7668 25.7578 27.7317L26.7539 26.7359C26.8008 26.689 26.8008 26.6187 26.7539 26.5718Z" fill="white"/>
</g>
<defs>
<clipPath id="clip0_39590_24">
<rect width="15" height="14.9957" fill="white" transform="translate(15 15.9812)"/>
</clipPath>
</defs>
</svg>
