<svg width="30" height="30" viewBox="0 0 30 30" fill="none" xmlns="http://www.w3.org/2000/svg">
<path d="M30 28.0665V6.68075C29.9941 6.51083 29.9297 6.32334 29.7598 6.15343L23.8711 0.265021C23.8711 0.265021 23.5605 -0.0220758 23.1855 0.00136059H1.93359C1.93359 0.00136059 0 0.00136049 0 1.93487V28.0665C0 28.0665 0 30 1.93359 30H28.0664C28.0664 30 30 30 30 28.0665ZM23.6133 9.55171C23.6133 10.8407 22.3242 10.8407 22.3242 10.8407H7.67578C6.38672 10.8407 6.38672 9.55171 6.38672 9.55171V3.39964C6.38672 2.11064 7.67578 2.11064 7.67578 2.11064H22.3242C23.6133 2.11064 23.6133 3.39964 23.6133 3.39964V9.55171ZM27.8906 26.6017C27.8906 27.8907 26.6016 27.8907 26.6016 27.8907H3.39844C2.10938 27.8907 2.10938 26.6017 2.10938 26.6017V14.8835C2.10938 13.5945 3.39844 13.5945 3.39844 13.5945H26.6016C27.8906 13.5945 27.8906 14.8835 27.8906 14.8835V26.6017ZM22.5586 9.14157V3.80978C22.5586 3.80978 22.5586 2.93092 21.6797 2.93092H18.8086C18.8086 2.93092 17.9297 2.93092 17.9297 3.80978V9.14157C17.9297 9.14157 17.9297 10.0204 18.8086 10.0204H21.6797C21.6797 10.0204 22.5586 10.0204 22.5586 9.14157Z" fill="#6EC4A7"/>
</svg>
